<svg width="24" height="17" viewBox="0 0 24 17" fill="none" xmlns="http://www.w3.org/2000/svg">
<path d="M23.0092 0.935315C22.8736 0.724717 22.6872 0.551585 22.4672 0.431835C22.2472 0.312085 22.0006 0.249559 21.7501 0.250002H8.32608C8.03717 0.249982 7.75439 0.3334 7.51174 0.49023C7.2691 0.647061 7.07691 0.870629 6.95827 1.13406L0.883271 14.6341C0.780421 14.8624 0.736398 15.1129 0.755217 15.3627C0.774036 15.6125 0.855098 15.8535 0.991008 16.0639C1.12692 16.2743 1.31335 16.4473 1.53329 16.5672C1.75323 16.687 1.99968 16.7499 2.25015 16.75H15.6742C15.9631 16.75 16.2459 16.6666 16.4885 16.5098C16.7312 16.3529 16.9234 16.1294 17.042 15.8659L23.117 2.36594C23.22 2.13745 23.2641 1.88681 23.2452 1.6369C23.2264 1.38699 23.1453 1.14579 23.0092 0.935315ZM15.6742 15.25H2.25015L8.32608 1.75H21.7501L15.6742 15.25Z" fill="#EEEEEE"/>
</svg>
