<svg width="190" height="56" viewBox="0 0 190 56" fill="none" xmlns="http://www.w3.org/2000/svg">
<g clip-path="url(#clip0_23_387)">
<path d="M182.6 0H7.59961C3.73362 0 0.599609 3.13401 0.599609 7V49C0.599609 52.866 3.73362 56 7.59961 56H182.6C186.466 56 189.6 52.866 189.6 49V7C189.6 3.13401 186.466 0 182.6 0Z" fill="black"/>
<path d="M66.988 14.3361C67.0361 15.3738 66.6566 16.3858 65.938 17.1361C65.1351 17.9702 64.0151 18.4233 62.858 18.3821C61.0833 18.3682 59.4898 17.2918 58.8144 15.6505C58.139 14.0093 58.5132 12.1231 59.764 10.8641C60.5768 10.0343 61.6968 9.57818 62.858 9.60406C63.4499 9.60209 64.0359 9.72119 64.58 9.95406C65.0866 10.1584 65.5376 10.4798 65.896 10.8921L65.154 11.6341C64.5875 10.9602 63.7371 10.592 62.858 10.6401C61.9744 10.6357 61.1272 10.9916 60.5117 11.6256C59.8962 12.2596 59.5656 13.117 59.596 14.0001C59.5773 15.3345 60.3632 16.5492 61.5881 17.079C62.8131 17.6088 64.2365 17.3496 65.196 16.4221C65.6268 15.9552 65.8753 15.349 65.896 14.7141H62.858V13.7061H66.932C66.9694 13.914 66.9881 14.1248 66.988 14.3361ZM73.4 10.8361H69.62V13.4961H73.064V14.5041H69.62V17.1641H73.4V18.2001H68.5V9.80006H73.4V10.8361ZM77.992 18.2001H76.914V10.8361H74.562V9.80006H80.4V10.8361H77.992V18.2001ZM84.516 18.2001V9.80006H85.594V18.2001H84.516ZM90.382 18.2001H89.304V10.8361H86.952V9.80006H92.72V10.8361H90.382V18.2001ZM103.654 17.1081C101.95 18.8024 99.1978 18.8024 97.494 17.1081C95.8424 15.3598 95.8424 12.6263 97.494 10.8781C98.3088 10.0573 99.4175 9.5957 100.574 9.5957C101.731 9.5957 102.839 10.0573 103.654 10.8781C105.313 12.6235 105.313 15.3626 103.654 17.1081ZM98.292 16.4081C99.5539 17.6646 101.594 17.6646 102.856 16.4081C104.095 15.0419 104.095 12.9582 102.856 11.5921C101.594 10.3355 99.5539 10.3355 98.292 11.5921C97.0528 12.9582 97.0528 15.0419 98.292 16.4081ZM106.412 18.2001V9.80006H107.728L111.816 16.3381V9.80006H112.894V18.2001H111.774L107.504 11.3541V18.2001H106.412Z" fill="white" stroke="white" stroke-width="0.2"/>
<path d="M95.9952 30.45C92.7128 30.4654 90.0629 33.1362 90.0732 36.4186C90.0835 39.701 92.75 42.355 96.0324 42.3499C99.3149 42.3448 101.973 39.6824 101.973 36.4C101.996 34.8101 101.373 33.279 100.246 32.1573C99.1189 31.0356 97.5849 30.4195 95.9952 30.45ZM95.9952 40.012C94.5157 40.1155 93.1233 39.304 92.484 37.9658C91.8447 36.6276 92.0884 35.0346 93.0985 33.9487C94.1087 32.8627 95.6799 32.5047 97.0608 33.0457C98.4417 33.5867 99.3516 34.9169 99.3552 36.4C99.4007 37.3277 99.0696 38.2345 98.437 38.9146C97.8043 39.5947 96.9238 39.9905 95.9952 40.012ZM82.9612 30.45C79.6769 30.4577 77.02 33.125 77.0252 36.4093C77.0303 39.6936 79.6956 42.3525 82.9798 42.35C86.2641 42.3474 88.9252 39.6843 88.9252 36.4C88.9482 34.8101 88.3249 33.279 87.1979 32.1573C86.071 31.0356 84.5369 30.4195 82.9472 30.45H82.9612ZM82.9612 40.012C81.4809 40.1213 80.0845 39.3139 79.4407 37.9765C78.7968 36.6391 79.0367 35.044 80.0454 33.9552C81.0541 32.8663 82.6262 32.5053 84.0089 33.0452C85.3915 33.585 86.3031 34.9157 86.3072 36.4C86.3527 37.3277 86.0216 38.2345 85.389 38.9146C84.7563 39.5947 83.8758 39.9905 82.9472 40.012H82.9612ZM67.4352 32.284V34.804H73.4832C73.3883 35.9909 72.8949 37.1109 72.0832 37.982C70.8596 39.2283 69.1663 39.8995 67.4212 39.83C63.7098 39.83 60.7012 36.8214 60.7012 33.11C60.7012 29.3986 63.7098 26.39 67.4212 26.39C69.1261 26.3622 70.7724 27.0117 71.9992 28.196L73.7772 26.418C72.104 24.7238 69.8162 23.7794 67.4352 23.8C64.0457 23.6681 60.8557 25.4011 59.1218 28.3165C57.3878 31.2318 57.3878 34.8622 59.1218 37.7775C60.8557 40.6929 64.0457 42.4259 67.4352 42.294C69.8596 42.4036 72.213 41.4591 73.8892 39.704C75.3559 38.0925 76.139 35.9741 76.0732 33.796C76.0777 33.2654 76.0308 32.7356 75.9332 32.214L67.4352 32.284ZM130.869 34.244C130.122 32.0449 128.094 30.5355 125.773 30.45C124.225 30.447 122.745 31.0848 121.684 32.2119C120.623 33.3391 120.076 34.8551 120.173 36.4C120.139 37.981 120.749 39.508 121.863 40.6302C122.977 41.7524 124.5 42.3732 126.081 42.35C128.07 42.3607 129.932 41.372 131.037 39.718L129.007 38.318C128.391 39.3455 127.279 39.973 126.081 39.97C124.84 40.0173 123.696 39.3011 123.197 38.164L131.163 34.874L130.869 34.244ZM122.749 36.232C122.692 35.3572 122.989 34.4962 123.574 33.843C124.158 33.1898 124.981 32.7995 125.857 32.76C126.78 32.6992 127.651 33.195 128.069 34.02L122.749 36.232ZM116.281 42H118.899V24.5H116.281V42ZM111.997 31.78H111.899C111.101 30.8877 109.96 30.3784 108.763 30.38C105.585 30.5341 103.088 33.1555 103.088 36.337C103.088 39.5185 105.585 42.1399 108.763 42.294C109.964 42.3142 111.112 41.8016 111.899 40.894H111.983V41.748C111.983 44.03 110.765 45.248 108.805 45.248C107.47 45.2167 106.286 44.3814 105.809 43.134L103.527 44.086C104.406 46.2235 106.494 47.6138 108.805 47.6001C111.871 47.6001 114.405 45.794 114.405 41.398V30.8H111.997V31.78ZM109.001 40.012C107.129 39.847 105.693 38.2792 105.693 36.4C105.693 34.5208 107.129 32.953 109.001 32.788C109.906 32.8344 110.753 33.2441 111.352 33.9241C111.95 34.6041 112.248 35.4969 112.179 36.4C112.256 37.3073 111.959 38.2066 111.356 38.8889C110.753 39.5712 109.897 39.977 108.987 40.012H109.001ZM143.133 24.5H136.875V42H139.493V35.364H143.147C145.181 35.5101 147.126 34.5079 148.187 32.767C149.249 31.026 149.249 28.838 148.187 27.097C147.126 25.3561 145.181 24.3539 143.147 24.5H143.133ZM143.133 32.9H139.479V26.936H143.189C144.848 26.936 146.192 28.2805 146.192 29.939C146.192 31.5975 144.848 32.942 143.189 32.942L143.133 32.9ZM159.275 30.38C157.327 30.2636 155.496 31.3139 154.613 33.054L156.937 34.02C157.405 33.1571 158.339 32.652 159.317 32.732C159.989 32.6536 160.663 32.8482 161.19 33.272C161.716 33.6958 162.05 34.3134 162.117 34.986V35.168C161.276 34.7228 160.339 34.492 159.387 34.496C156.881 34.496 154.347 35.896 154.347 38.43C154.397 39.5216 154.887 40.5466 155.704 41.2717C156.521 41.9969 157.597 42.3605 158.687 42.28C160.03 42.3764 161.319 41.7322 162.047 40.6H162.131V42H164.651V35.266C164.651 32.2 162.327 30.422 159.345 30.422L159.275 30.38ZM158.953 39.97C158.099 39.97 156.909 39.536 156.909 38.486C156.909 37.086 158.393 36.624 159.709 36.624C160.541 36.6035 161.363 36.8065 162.089 37.212C161.908 38.7792 160.6 39.9736 159.023 40.012L158.953 39.97ZM173.835 30.8L170.839 38.388H170.755L167.647 30.8H164.847L169.509 41.412L166.849 47.306H169.579L176.747 30.8H173.835ZM150.301 42H152.919V24.5H150.301V42Z" fill="white"/>
<path d="M15.2154 10.556C14.7591 11.1036 14.5288 11.8045 14.5714 12.516V43.484C14.5288 44.1955 14.7591 44.8965 15.2154 45.444L15.3134 45.542L32.6594 28.21V27.804L15.3134 10.458L15.2154 10.556Z" fill="url(#paint0_linear_23_387)"/>
<path d="M38.3992 33.9919L32.6592 28.2099V27.8039L38.3992 22.0079L38.5252 22.0779L45.3992 25.9839C47.3592 27.0899 47.3592 28.9099 45.3992 30.0299L38.5532 33.9219L38.3992 33.9919Z" fill="url(#paint1_linear_23_387)"/>
<path d="M38.5678 33.908L32.6598 28L15.2158 45.444C16.04 46.1685 17.2632 46.2038 18.1278 45.528L38.5818 33.908" fill="url(#paint2_linear_23_387)"/>
<path d="M38.5681 22.0921L18.1141 10.4721C17.2495 9.7963 16.0264 9.83159 15.2021 10.5561L32.6601 28.0001L38.5681 22.0921Z" fill="url(#paint3_linear_23_387)"/>
</g>
<defs>
<linearGradient id="paint0_linear_23_387" x1="1118.85" y1="184.058" x2="-368.133" y2="1671.05" gradientUnits="userSpaceOnUse">
<stop stop-color="#00A0FF"/>
<stop offset="0.01" stop-color="#00A1FF"/>
<stop offset="0.26" stop-color="#00BEFF"/>
<stop offset="0.51" stop-color="#00D2FF"/>
<stop offset="0.76" stop-color="#00DFFF"/>
<stop offset="1" stop-color="#00E3FF"/>
</linearGradient>
<linearGradient id="paint1_linear_23_387" x1="1562.86" y1="621.208" x2="-1823.74" y2="621.208" gradientUnits="userSpaceOnUse">
<stop stop-color="#FFE000"/>
<stop offset="0.41" stop-color="#FFBD00"/>
<stop offset="0.78" stop-color="#FFA500"/>
<stop offset="1" stop-color="#FF9C00"/>
</linearGradient>
<linearGradient id="paint2_linear_23_387" x1="2029.82" y1="584.776" x2="-510.406" y2="3123.88" gradientUnits="userSpaceOnUse">
<stop stop-color="#FF3A44"/>
<stop offset="1" stop-color="#C31162"/>
</linearGradient>
<linearGradient id="paint3_linear_23_387" x1="-422.998" y1="-203.123" x2="710.823" y2="930.698" gradientUnits="userSpaceOnUse">
<stop stop-color="#32A071"/>
<stop offset="0.07" stop-color="#2DA771"/>
<stop offset="0.48" stop-color="#15CF74"/>
<stop offset="0.8" stop-color="#06E775"/>
<stop offset="1" stop-color="#00F076"/>
</linearGradient>
<clipPath id="clip0_23_387">
<rect width="189" height="56" fill="white" transform="translate(0.599609)"/>
</clipPath>
</defs>
</svg>
